<svg height="798" width="720" xmlns="http://www.w3.org/2000/svg">
<rect height="798" fill="#555" width="720"></rect>
<text fill="#7f7" font-family="Courier New" font-size="12" xml:space="preserve">
<tspan x="10" y="26">3 megabytes installed</tspan>
<tspan x="10" y="42"></tspan>
<tspan x="10" y="58">node_modules</tspan>
<tspan x="10" y="74">└─┬ level-store@3.11.0 </tspan>
<tspan x="10" y="90">  ├── duplexer@0.1.1 </tspan>
<tspan x="10" y="106">  ├─┬ level-capped@0.0.4 </tspan>
<tspan x="10" y="122">  │ └─┬ level-sublevel@4.6.13 </tspan>
<tspan x="10" y="138">  │   ├── level-hooks@4.5.0 </tspan>
<tspan x="10" y="154">  │   ├── string-range@1.2.2 </tspan>
<tspan x="10" y="170">  │   └─┬ xtend@2.0.6 </tspan>
<tspan x="10" y="186">  │     ├── is-object@0.1.2 </tspan>
<tspan x="10" y="202">  │     └─┬ object-keys@0.2.0 </tspan>
<tspan x="10" y="218">  │       ├── foreach@2.0.5 </tspan>
<tspan x="10" y="234">  │       ├── indexof@0.0.1 </tspan>
<tspan x="10" y="250">  │       └── is@0.2.7 </tspan>
<tspan x="10" y="266">  ├─┬ level-delete-range@0.1.0 </tspan>
<tspan x="10" y="282">  │ └─┬ end-stream@0.1.0 </tspan>
<tspan x="10" y="298">  │   └─┬ write-stream@0.4.3 </tspan>
<tspan x="10" y="314">  │     └── readable-stream@0.0.4 </tspan>
<tspan x="10" y="330">  ├── level-fix-range@1.1.4 </tspan>
<tspan x="10" y="346">  ├─┬ level-live-stream@1.4.8 </tspan>
<tspan x="10" y="362">  │ ├─┬ pull-level@1.1.12 </tspan>
<tspan x="10" y="378">  │ │ ├─┬ level-post@1.0.5 </tspan>
<tspan x="10" y="394">  │ │ │ └── ltgt@2.1.3 </tspan>
<tspan x="10" y="410">  │ │ ├── pull-cat@1.1.11 </tspan>
<tspan x="10" y="426">  │ │ ├─┬ pull-pushable@1.1.4 </tspan>
<tspan x="10" y="442">  │ │ │ └── pull-stream@2.18.3 </tspan>
<tspan x="10" y="458">  │ │ ├─┬ pull-stream@2.28.4 </tspan>
<tspan x="10" y="474">  │ │ │ └── pull-core@1.1.0 </tspan>
<tspan x="10" y="490">  │ │ ├─┬ pull-window@2.1.4 </tspan>
<tspan x="10" y="506">  │ │ │ └── looper@2.0.0 </tspan>
<tspan x="10" y="522">  │ │ └── stream-to-pull-stream@1.3.1 </tspan>
<tspan x="10" y="538">  │ └─┬ pull-stream-to-stream@1.2.6 </tspan>
<tspan x="10" y="554">  │   └── pull-core@1.0.0 </tspan>
<tspan x="10" y="570">  ├─┬ level-peek@1.0.6 </tspan>
<tspan x="10" y="586">  │ └── level-fix-range@1.0.2 </tspan>
<tspan x="10" y="602">  ├─┬ level-ws@0.0.1 </tspan>
<tspan x="10" y="618">  │ ├─┬ readable-stream@2.0.6 </tspan>
<tspan x="10" y="634">  │ │ ├── core-util-is@1.0.2 </tspan>
<tspan x="10" y="650">  │ │ ├── inherits@2.0.3 </tspan>
<tspan x="10" y="666">  │ │ ├── isarray@1.0.0 </tspan>
<tspan x="10" y="682">  │ │ ├── process-nextick-args@1.0.7 </tspan>
<tspan x="10" y="698">  │ │ ├── string_decoder@0.10.31 </tspan>
<tspan x="10" y="714">  │ │ └── util-deprecate@1.0.2 </tspan>
<tspan x="10" y="730">  │ └─┬ xtend@2.1.2 </tspan>
<tspan x="10" y="746">  │   └── object-keys@0.4.0 </tspan>
<tspan x="10" y="762">  ├── monotonic-timestamp@0.0.9 </tspan>
<tspan x="10" y="778">  └── through@2.2.7</tspan>
</text>
</svg>
